<svg width="325" height="329" viewBox="0 0 325 329" fill="none" xmlns="http://www.w3.org/2000/svg">
<g clip-path="url(#clip0_2039_3692)">
<path opacity="0.95" d="M173.608 72.7358C173.396 72.7222 173.189 72.7097 172.978 72.6994L163.979 54.6309L153.269 73.4674C153.232 73.4727 153.194 73.478 153.161 73.481L139.535 57.9103L133.551 78.5094L115.442 62.6072L115.387 87.7943L115.417 87.8411L155.599 169.631L165.009 146.299L192.641 75.107L186.15 52.7268L173.605 72.7381L173.608 72.7358Z" fill="white"/>
<g filter="url(#filter0_n_2039_3692)">
<path d="M132.136 43.6052L125.08 67.0209L103.54 51.4607L104.271 77.3105L104.304 77.3621L112.114 89.6043L112.086 89.5595L113.382 69.1026L129.815 80.7798L135.887 60.9057L148.886 76.1242C148.92 76.1216 148.956 76.1132 148.991 76.1106L159.623 57.9928L168.105 75.5802C168.31 75.5945 168.509 75.6078 168.714 75.6221L181.819 60.4356L187.131 78.1211L192.595 64.602L185.711 41.8811L170.068 61.052C170.31 61.0672 169.83 61.0345 170.068 61.052L160.025 40.274L147.599 61.6028C147.558 61.61 147.517 61.6115 147.476 61.6188L132.133 43.6168L132.136 43.6052Z" fill="#111012"/>
</g>
<path opacity="0.95" d="M245.182 121.385C245.055 121.214 244.931 121.048 244.803 120.881L252.783 102.339L231.485 106.331C231.457 106.306 231.429 106.281 231.405 106.258L234.489 85.7979L214.899 94.5361L215.341 70.4406L196.078 86.6682L196.062 86.7219L159.583 170.229L183.472 162.341L255.667 137.446L268.558 118.034L245.178 121.384L245.182 121.385Z" fill="white"/>
<g filter="url(#filter1_n_2039_3692)">
<path d="M240.63 70.9091L218.197 80.6488L216.161 54.1542L196.9 71.4109L196.882 71.4693L192.582 85.3395L192.598 85.2888L209.051 73.0632L210.753 93.1511L229.846 84.9478L226.626 104.702C226.65 104.726 226.68 104.748 226.704 104.773L247.402 101.185L239.456 119.021C239.577 119.187 239.696 119.348 239.818 119.513L259.876 119.707L249.807 135.186L263.656 130.624L276.554 110.692L251.814 111.135C251.959 111.329 251.674 110.942 251.814 111.135L261.188 90.0465L236.88 94.3392C236.847 94.312 236.82 94.2822 236.788 94.255L240.619 70.9143L240.63 70.9091Z" fill="#111012"/>
</g>
<path opacity="0.95" d="M254.09 205.671C254.134 205.462 254.175 205.259 254.215 205.053L273.37 198.686L256.229 185.431C256.229 185.394 256.229 185.356 256.231 185.322L273.564 174.024L254.013 165.199L272.305 149.51L247.377 145.909L247.326 145.933L160.694 174.203L182.47 186.803L249.064 224.181L272.135 220.904L254.088 205.667L254.09 205.671Z" fill="white"/>
<g filter="url(#filter2_n_2039_3692)">
<path d="M288.768 168.712L266.579 158.431L285.016 139.295L259.321 136.38L259.265 136.406L246.045 142.415L246.094 142.393L266.165 146.555L252.29 161.182L271.112 169.99L254.215 180.718C254.213 180.753 254.216 180.789 254.214 180.824L270.655 193.9L252.049 199.822C252.006 200.023 251.964 200.218 251.921 200.42L265.112 215.532L246.855 218.301L259.47 225.614L282.934 221.996L266.156 203.811C266.107 204.048 266.207 203.577 266.156 203.811L288.141 196.792L268.773 181.488C268.772 181.446 268.776 181.406 268.775 181.363L288.757 168.708L288.768 168.712Z" fill="#111012"/>
</g>
<g opacity="0.9" filter="url(#filter3_n_2039_3692)">
<path d="M124.292 158.678C85.119 181.421 93.3224 225.891 104.708 243.303C128.107 279.092 175.05 278.804 203.831 244.105C238.964 201.747 173.258 130.249 124.292 158.678Z" fill="#111012"/>
</g>
<g filter="url(#filter4_d_2039_3692)">
<path d="M127.371 155.861C88.1985 178.604 96.4019 223.074 107.787 240.486C131.187 276.276 178.129 275.988 206.91 241.288C242.043 198.93 176.337 127.432 127.371 155.861Z" fill="#C7EE26"/>
</g>
<g filter="url(#filter5_n_2039_3692)">
<path d="M127.371 155.861C88.1984 178.604 96.4018 223.074 107.787 240.486C131.186 276.276 178.129 275.988 206.91 241.288C242.043 198.93 176.337 127.432 127.371 155.861Z" fill="#C7EE26"/>
</g>
<path opacity="0.95" d="M75.0229 126.679C74.994 126.877 74.9665 127.07 74.9408 127.266L57.3471 134.308L74.1551 145.767C74.1572 145.802 74.1593 145.837 74.1595 145.869L58.5499 157.43L77.3678 164.602L61.1059 180.332L84.6694 182.307L84.7155 182.282L164.314 150.926L143.2 140.34L78.6944 109.051L57.2577 113.416L75.0248 126.683L75.0229 126.679Z" fill="white"/>
<g filter="url(#filter6_n_2039_3692)">
<path d="M44.5998 163.261L65.9714 171.651L49.7675 190.619L74.0112 191.907L74.062 191.88L86.1131 185.507L86.0691 185.53L67.0263 182.756L79.2071 168.271L61.0742 161.072L76.3065 150.07C76.3066 150.038 76.3015 150.004 76.3017 149.971L60.1602 138.64L77.2643 132.046C77.2934 131.855 77.321 131.67 77.35 131.479L64.1402 118.057L81.094 114.437L68.8613 108.292L47.0757 112.999L63.82 129.1C63.8527 128.875 63.7855 129.321 63.82 129.1L43.6114 136.912L62.6204 150.166C62.6241 150.206 62.6224 150.243 62.626 150.283L44.6104 163.265L44.5998 163.261Z" fill="#111012"/>
</g>
<path d="M108.65 218.433C123.387 218.433 135.333 206.487 135.333 191.75C135.333 177.013 123.387 165.067 108.65 165.067C93.9133 165.067 81.9669 177.013 81.9669 191.75C81.9669 206.487 93.9133 218.433 108.65 218.433Z" stroke="#111012" stroke-width="3.33538" stroke-miterlimit="10"/>
<path d="M162.016 218.433C176.753 218.433 188.699 206.487 188.699 191.75C188.699 177.013 176.753 165.067 162.016 165.067C147.28 165.067 135.333 177.013 135.333 191.75C135.333 206.487 147.28 218.433 162.016 218.433Z" stroke="#111012" stroke-width="3.33538" stroke-miterlimit="10"/>
<g filter="url(#filter7_d_2039_3692)">
<path d="M180.68 192.719C179.301 189.142 172.973 187.591 170.516 192.49C168.229 199.061 175.048 199.633 177.139 199.419C179.23 199.206 182.404 197.191 180.68 192.719Z" fill="#111012"/>
</g>
<g filter="url(#filter8_d_2039_3692)">
<path d="M127.389 191.047C125.907 187.511 119.537 186.144 117.223 191.112C115.127 197.747 121.959 198.121 124.043 197.847C126.127 197.573 129.242 195.467 127.389 191.047Z" fill="#111012"/>
</g>
<g opacity="0.9" filter="url(#filter9_d_2039_3692)">
<path d="M121.162 217.183C120.936 224.784 126.907 231.119 134.5 231.352C142.093 231.585 148.436 225.608 148.669 218.015C148.902 210.422 142.924 204.079 135.331 203.846C127.738 203.613 121.395 209.59 121.162 217.183ZM136.706 209.275L136.5 216.115L143.341 216.321C144.188 216.348 144.846 217.051 144.826 217.891C144.806 218.731 144.095 219.396 143.255 219.376L136.415 219.171L136.209 226.011C136.182 226.858 135.479 227.516 134.639 227.496C133.799 227.476 133.134 226.765 133.154 225.925L133.359 219.085L126.519 218.88C125.672 218.852 125.014 218.149 125.034 217.309C125.054 216.469 125.765 215.804 126.605 215.824L133.445 216.03L133.65 209.189C133.678 208.342 134.381 207.684 135.221 207.704C136.061 207.724 136.726 208.435 136.706 209.275Z" fill="#65B1E2"/>
</g>
<g opacity="0.9" filter="url(#filter10_n_2039_3692)">
<path d="M121.162 217.183C120.936 224.784 126.907 231.119 134.5 231.352C142.093 231.585 148.436 225.608 148.669 218.015C148.902 210.422 142.924 204.079 135.331 203.846C127.738 203.613 121.395 209.59 121.162 217.183ZM136.706 209.275L136.5 216.115L143.341 216.321C144.188 216.348 144.846 217.051 144.826 217.891C144.806 218.731 144.095 219.396 143.255 219.376L136.415 219.171L136.209 226.011C136.182 226.858 135.479 227.516 134.639 227.496C133.799 227.476 133.134 226.765 133.154 225.925L133.359 219.085L126.519 218.88C125.672 218.852 125.014 218.149 125.034 217.309C125.054 216.469 125.765 215.804 126.605 215.824L133.445 216.03L133.65 209.189C133.678 208.342 134.381 207.684 135.221 207.704C136.061 207.724 136.726 208.435 136.706 209.275Z" fill="#65B1E2"/>
</g>
<path opacity="0.9" d="M130.124 237.981C148.09 251.108 176.532 242.715 185.259 223.441" stroke="#111012" stroke-width="3.33538" stroke-linecap="round"/>
<path d="M158.41 191.455L173.342 191.377" stroke="black" stroke-width="3.33538" stroke-linecap="round"/>
<path d="M109.577 189.615L124.493 189.634" stroke="black" stroke-width="3.33538" stroke-linecap="round"/>
</g>
<path d="M65.7664 315.22H59.7664V288.58H65.7664V315.22ZM65.7664 325H59.7664V318.94H65.7664V325ZM93.2323 325H87.2923V299.5H75.0523V293.5H93.2323V325ZM80.9923 325H75.0523V303.94H80.9923V325ZM105.568 325H99.5084L105.268 305.2H100.108V293.5H106.048V302.5L108.748 293.5H118.828V325H109.708V319.06H112.888V300.34L105.568 325ZM133.736 325H127.676V299.5H125.276V293.5H136.136V299.5H133.736V325ZM148.147 325H142.267V311.5H147.907L144.907 299.44L142.267 299.5V293.5H149.467L157.267 325H151.147L148.147 313.12V325ZM179.651 325H173.711V299.5H161.471V293.5H179.651V325ZM167.411 325H161.471V303.94H167.411V325ZM205.727 325H186.407V319.06H197.207V299.5H186.527V293.5H203.147V319.06H205.727V325ZM239.688 325H233.688V299.5H224.628V293.5H241.788V299.5H239.688V325ZM254.481 325H248.541V293.5H267.381V325H261.441V299.5H254.481V325Z" fill="#111012"/>
<defs>
<filter id="filter0_n_2039_3692" x="103.54" y="40.2739" width="89.0552" height="49.3306" filterUnits="userSpaceOnUse" color-interpolation-filters="sRGB">
<feFlood flood-opacity="0" result="BackgroundImageFix"/>
<feBlend mode="normal" in="SourceGraphic" in2="BackgroundImageFix" result="shape"/>
<feTurbulence type="fractalNoise" baseFrequency="3.9975395202636719 3.9975395202636719" stitchTiles="stitch" numOctaves="3" result="noise" seed="437" />
<feColorMatrix in="noise" type="luminanceToAlpha" result="alphaNoise" />
<feComponentTransfer in="alphaNoise" result="coloredNoise1">
<feFuncA type="discrete" tableValues="0 0 0 0 0 0 0 0 0 0 0 0 0 0 0 0 0 0 0 0 1 1 1 1 1 1 1 1 1 0 0 0 0 0 0 0 0 0 0 0 0 0 0 0 0 0 0 0 0 0 0 0 0 0 0 0 0 0 0 0 0 0 0 0 0 0 0 0 0 0 0 0 0 0 0 0 0 0 0 0 0 0 0 0 0 0 0 0 0 0 0 0 0 0 0 0 0 0 0 0 "/>
</feComponentTransfer>
<feComposite operator="in" in2="shape" in="coloredNoise1" result="noise1Clipped" />
<feFlood flood-color="#F3F3F3" result="color1Flood" />
<feComposite operator="in" in2="noise1Clipped" in="color1Flood" result="color1" />
<feMerge result="effect1_noise_2039_3692">
<feMergeNode in="shape" />
<feMergeNode in="color1" />
</feMerge>
</filter>
<filter id="filter1_n_2039_3692" x="192.582" y="54.1543" width="83.9712" height="81.0317" filterUnits="userSpaceOnUse" color-interpolation-filters="sRGB">
<feFlood flood-opacity="0" result="BackgroundImageFix"/>
<feBlend mode="normal" in="SourceGraphic" in2="BackgroundImageFix" result="shape"/>
<feTurbulence type="fractalNoise" baseFrequency="3.9975395202636719 3.9975395202636719" stitchTiles="stitch" numOctaves="3" result="noise" seed="437" />
<feColorMatrix in="noise" type="luminanceToAlpha" result="alphaNoise" />
<feComponentTransfer in="alphaNoise" result="coloredNoise1">
<feFuncA type="discrete" tableValues="0 0 0 0 0 0 0 0 0 0 0 0 0 0 0 0 0 0 0 0 1 1 1 1 1 1 1 1 1 0 0 0 0 0 0 0 0 0 0 0 0 0 0 0 0 0 0 0 0 0 0 0 0 0 0 0 0 0 0 0 0 0 0 0 0 0 0 0 0 0 0 0 0 0 0 0 0 0 0 0 0 0 0 0 0 0 0 0 0 0 0 0 0 0 0 0 0 0 0 0 "/>
</feComponentTransfer>
<feComposite operator="in" in2="shape" in="coloredNoise1" result="noise1Clipped" />
<feFlood flood-color="#F3F3F3" result="color1Flood" />
<feComposite operator="in" in2="noise1Clipped" in="color1Flood" result="color1" />
<feMerge result="effect1_noise_2039_3692">
<feMergeNode in="shape" />
<feMergeNode in="color1" />
</feMerge>
</filter>
<filter id="filter2_n_2039_3692" x="246.045" y="136.38" width="42.7228" height="89.2334" filterUnits="userSpaceOnUse" color-interpolation-filters="sRGB">
<feFlood flood-opacity="0" result="BackgroundImageFix"/>
<feBlend mode="normal" in="SourceGraphic" in2="BackgroundImageFix" result="shape"/>
<feTurbulence type="fractalNoise" baseFrequency="3.9975395202636719 3.9975395202636719" stitchTiles="stitch" numOctaves="3" result="noise" seed="437" />
<feColorMatrix in="noise" type="luminanceToAlpha" result="alphaNoise" />
<feComponentTransfer in="alphaNoise" result="coloredNoise1">
<feFuncA type="discrete" tableValues="0 0 0 0 0 0 0 0 0 0 0 0 0 0 0 0 0 0 0 0 1 1 1 1 1 1 1 1 1 0 0 0 0 0 0 0 0 0 0 0 0 0 0 0 0 0 0 0 0 0 0 0 0 0 0 0 0 0 0 0 0 0 0 0 0 0 0 0 0 0 0 0 0 0 0 0 0 0 0 0 0 0 0 0 0 0 0 0 0 0 0 0 0 0 0 0 0 0 0 0 "/>
</feComponentTransfer>
<feComposite operator="in" in2="shape" in="coloredNoise1" result="noise1Clipped" />
<feFlood flood-color="#F3F3F3" result="color1Flood" />
<feComposite operator="in" in2="noise1Clipped" in="color1Flood" result="color1" />
<feMerge result="effect1_noise_2039_3692">
<feMergeNode in="shape" />
<feMergeNode in="color1" />
</feMerge>
</filter>
<filter id="filter3_n_2039_3692" x="95.2919" y="152.177" width="118.461" height="117.96" filterUnits="userSpaceOnUse" color-interpolation-filters="sRGB">
<feFlood flood-opacity="0" result="BackgroundImageFix"/>
<feBlend mode="normal" in="SourceGraphic" in2="BackgroundImageFix" result="shape"/>
<feTurbulence type="fractalNoise" baseFrequency="3.9975395202636719 3.9975395202636719" stitchTiles="stitch" numOctaves="3" result="noise" seed="437" />
<feColorMatrix in="noise" type="luminanceToAlpha" result="alphaNoise" />
<feComponentTransfer in="alphaNoise" result="coloredNoise1">
<feFuncA type="discrete" tableValues="0 0 0 0 0 0 0 0 0 0 0 0 0 0 0 0 0 0 0 0 1 1 1 1 1 1 1 1 1 0 0 0 0 0 0 0 0 0 0 0 0 0 0 0 0 0 0 0 0 0 0 0 0 0 0 0 0 0 0 0 0 0 0 0 0 0 0 0 0 0 0 0 0 0 0 0 0 0 0 0 0 0 0 0 0 0 0 0 0 0 0 0 0 0 0 0 0 0 0 0 "/>
</feComponentTransfer>
<feComposite operator="in" in2="shape" in="coloredNoise1" result="noise1Clipped" />
<feFlood flood-color="#F3F3F3" result="color1Flood" />
<feComposite operator="in" in2="noise1Clipped" in="color1Flood" result="color1" />
<feMerge result="effect1_noise_2039_3692">
<feMergeNode in="shape" />
<feMergeNode in="color1" />
</feMerge>
</filter>
<filter id="filter4_d_2039_3692" x="98.3713" y="149.36" width="120.129" height="119.628" filterUnits="userSpaceOnUse" color-interpolation-filters="sRGB">
<feFlood flood-opacity="0" result="BackgroundImageFix"/>
<feColorMatrix in="SourceAlpha" type="matrix" values="0 0 0 0 0 0 0 0 0 0 0 0 0 0 0 0 0 0 127 0" result="hardAlpha"/>
<feOffset dx="1.66769" dy="1.66769"/>
<feComposite in2="hardAlpha" operator="out"/>
<feColorMatrix type="matrix" values="0 0 0 0 1 0 0 0 0 1 0 0 0 0 1 0 0 0 1 0"/>
<feBlend mode="normal" in2="BackgroundImageFix" result="effect1_dropShadow_2039_3692"/>
<feBlend mode="normal" in="SourceGraphic" in2="effect1_dropShadow_2039_3692" result="shape"/>
</filter>
<filter id="filter5_n_2039_3692" x="98.3712" y="149.36" width="118.461" height="117.96" filterUnits="userSpaceOnUse" color-interpolation-filters="sRGB">
<feFlood flood-opacity="0" result="BackgroundImageFix"/>
<feBlend mode="normal" in="SourceGraphic" in2="BackgroundImageFix" result="shape"/>
<feTurbulence type="fractalNoise" baseFrequency="3.9975395202636719 3.9975395202636719" stitchTiles="stitch" numOctaves="3" result="noise" seed="4583" />
<feColorMatrix in="noise" type="luminanceToAlpha" result="alphaNoise" />
<feComponentTransfer in="alphaNoise" result="coloredNoise1">
<feFuncA type="discrete" tableValues="0 0 0 0 0 0 0 0 0 0 0 1 1 1 1 1 1 1 1 1 1 1 1 1 1 1 1 1 1 1 1 1 1 1 1 1 1 1 1 0 0 0 0 0 0 0 0 0 0 0 0 0 0 0 0 0 0 0 0 0 0 0 0 0 0 0 0 0 0 0 0 0 0 0 0 0 0 0 0 0 0 0 0 0 0 0 0 0 0 0 0 0 0 0 0 0 0 0 0 0 "/>
</feComponentTransfer>
<feComposite operator="in" in2="shape" in="coloredNoise1" result="noise1Clipped" />
<feComponentTransfer in="alphaNoise" result="coloredNoise2">
<feFuncA type="discrete" tableValues="0 0 0 0 0 0 0 0 0 0 0 0 0 0 0 0 0 0 0 0 0 0 0 0 0 0 0 0 0 0 0 0 0 0 0 0 0 0 0 0 0 0 0 0 0 0 0 0 0 0 0 0 0 0 0 0 0 0 0 0 0 1 1 1 1 1 1 1 1 1 1 1 1 1 1 1 1 1 1 1 1 1 1 1 1 1 1 1 1 0 0 0 0 0 0 0 0 0 0 0 "/>
</feComponentTransfer>
<feComposite operator="in" in2="shape" in="coloredNoise2" result="noise2Clipped" />
<feFlood flood-color="rgba(121, 90, 73, 0.67)" result="color1Flood" />
<feComposite operator="in" in2="noise1Clipped" in="color1Flood" result="color1" />
<feFlood flood-color="rgba(255, 255, 255, 0.25)" result="color2Flood" />
<feComposite operator="in" in2="noise2Clipped" in="color2Flood" result="color2" />
<feMerge result="effect1_noise_2039_3692">
<feMergeNode in="shape" />
<feMergeNode in="color1" />
<feMergeNode in="color2" />
</feMerge>
</filter>
<filter id="filter6_n_2039_3692" x="43.6115" y="108.292" width="42.5017" height="83.6147" filterUnits="userSpaceOnUse" color-interpolation-filters="sRGB">
<feFlood flood-opacity="0" result="BackgroundImageFix"/>
<feBlend mode="normal" in="SourceGraphic" in2="BackgroundImageFix" result="shape"/>
<feTurbulence type="fractalNoise" baseFrequency="3.9975395202636719 3.9975395202636719" stitchTiles="stitch" numOctaves="3" result="noise" seed="437" />
<feColorMatrix in="noise" type="luminanceToAlpha" result="alphaNoise" />
<feComponentTransfer in="alphaNoise" result="coloredNoise1">
<feFuncA type="discrete" tableValues="0 0 0 0 0 0 0 0 0 0 0 0 0 0 0 0 0 0 0 0 1 1 1 1 1 1 1 1 1 0 0 0 0 0 0 0 0 0 0 0 0 0 0 0 0 0 0 0 0 0 0 0 0 0 0 0 0 0 0 0 0 0 0 0 0 0 0 0 0 0 0 0 0 0 0 0 0 0 0 0 0 0 0 0 0 0 0 0 0 0 0 0 0 0 0 0 0 0 0 0 "/>
</feComponentTransfer>
<feComposite operator="in" in2="shape" in="coloredNoise1" result="noise1Clipped" />
<feFlood flood-color="#F3F3F3" result="color1Flood" />
<feComposite operator="in" in2="noise1Clipped" in="color1Flood" result="color1" />
<feMerge result="effect1_noise_2039_3692">
<feMergeNode in="shape" />
<feMergeNode in="color1" />
</feMerge>
</filter>
<filter id="filter7_d_2039_3692" x="170.053" y="189.392" width="12.789" height="11.7307" filterUnits="userSpaceOnUse" color-interpolation-filters="sRGB">
<feFlood flood-opacity="0" result="BackgroundImageFix"/>
<feColorMatrix in="SourceAlpha" type="matrix" values="0 0 0 0 0 0 0 0 0 0 0 0 0 0 0 0 0 0 127 0" result="hardAlpha"/>
<feOffset dx="1.66769" dy="1.66769"/>
<feComposite in2="hardAlpha" operator="out"/>
<feColorMatrix type="matrix" values="0 0 0 0 1 0 0 0 0 1 0 0 0 0 1 0 0 0 1 0"/>
<feBlend mode="normal" in2="BackgroundImageFix" result="effect1_dropShadow_2039_3692"/>
<feBlend mode="normal" in="SourceGraphic" in2="effect1_dropShadow_2039_3692" result="shape"/>
</filter>
<filter id="filter8_d_2039_3692" x="116.828" y="187.872" width="12.7944" height="11.7048" filterUnits="userSpaceOnUse" color-interpolation-filters="sRGB">
<feFlood flood-opacity="0" result="BackgroundImageFix"/>
<feColorMatrix in="SourceAlpha" type="matrix" values="0 0 0 0 0 0 0 0 0 0 0 0 0 0 0 0 0 0 127 0" result="hardAlpha"/>
<feOffset dx="1.66769" dy="1.66769"/>
<feComposite in2="hardAlpha" operator="out"/>
<feColorMatrix type="matrix" values="0 0 0 0 1 0 0 0 0 1 0 0 0 0 1 0 0 0 1 0"/>
<feBlend mode="normal" in2="BackgroundImageFix" result="effect1_dropShadow_2039_3692"/>
<feBlend mode="normal" in="SourceGraphic" in2="effect1_dropShadow_2039_3692" result="shape"/>
</filter>
<filter id="filter9_d_2039_3692" x="121.156" y="203.839" width="29.187" height="29.1877" filterUnits="userSpaceOnUse" color-interpolation-filters="sRGB">
<feFlood flood-opacity="0" result="BackgroundImageFix"/>
<feColorMatrix in="SourceAlpha" type="matrix" values="0 0 0 0 0 0 0 0 0 0 0 0 0 0 0 0 0 0 127 0" result="hardAlpha"/>
<feOffset dx="1.66769" dy="1.66769"/>
<feComposite in2="hardAlpha" operator="out"/>
<feColorMatrix type="matrix" values="0 0 0 0 1 0 0 0 0 1 0 0 0 0 1 0 0 0 1 0"/>
<feBlend mode="normal" in2="BackgroundImageFix" result="effect1_dropShadow_2039_3692"/>
<feBlend mode="normal" in="SourceGraphic" in2="effect1_dropShadow_2039_3692" result="shape"/>
</filter>
<filter id="filter10_n_2039_3692" x="121.156" y="203.839" width="27.5193" height="27.52" filterUnits="userSpaceOnUse" color-interpolation-filters="sRGB">
<feFlood flood-opacity="0" result="BackgroundImageFix"/>
<feBlend mode="normal" in="SourceGraphic" in2="BackgroundImageFix" result="shape"/>
<feTurbulence type="fractalNoise" baseFrequency="2.3985240459442139 2.3985240459442139" stitchTiles="stitch" numOctaves="3" result="noise" seed="6579" />
<feColorMatrix in="noise" type="luminanceToAlpha" result="alphaNoise" />
<feComponentTransfer in="alphaNoise" result="coloredNoise1">
<feFuncA type="discrete" tableValues="0 0 0 0 0 0 0 0 0 0 0 0 0 0 1 1 1 1 1 1 1 1 1 1 1 1 1 1 1 1 1 1 1 1 1 0 0 0 0 0 0 0 0 0 0 0 0 0 0 0 0 0 0 0 0 0 0 0 0 0 0 0 0 0 0 0 0 0 0 0 0 0 0 0 0 0 0 0 0 0 0 0 0 0 0 0 0 0 0 0 0 0 0 0 0 0 0 0 0 0 "/>
</feComponentTransfer>
<feComposite operator="in" in2="shape" in="coloredNoise1" result="noise1Clipped" />
<feFlood flood-color="rgba(0, 0, 0, 0.25)" result="color1Flood" />
<feComposite operator="in" in2="noise1Clipped" in="color1Flood" result="color1" />
<feMerge result="effect1_noise_2039_3692">
<feMergeNode in="shape" />
<feMergeNode in="color1" />
</feMerge>
</filter>
<clipPath id="clip0_2039_3692">
<rect width="271" height="289.368" fill="white" transform="translate(41)"/>
</clipPath>
</defs>
</svg>
