<svg width="271" height="290" viewBox="0 0 271 290" fill="none" xmlns="http://www.w3.org/2000/svg">
<g clip-path="url(#clip0_1758_3667)">
<path opacity="0.95" d="M132.608 72.7358C132.396 72.7222 132.189 72.7097 131.979 72.6995L122.979 54.6309L112.269 73.4674C112.232 73.4727 112.195 73.478 112.161 73.481L98.535 57.9103L92.5507 78.5094L74.4425 62.6072L74.3868 87.7943L74.4175 87.8411L114.6 169.631L124.01 146.299L151.641 75.107L145.15 52.7268L132.605 72.7381L132.608 72.7358Z" fill="white"/>
<g filter="url(#filter0_n_1758_3667)">
<path d="M91.1358 43.6052L84.08 67.0209L62.5395 51.4607L63.2711 77.3105L63.304 77.3621L71.1143 89.6043L71.0858 89.5595L72.3814 69.1026L88.8149 80.7798L94.8864 60.9057L107.886 76.1242C107.92 76.1216 107.956 76.1132 107.991 76.1106L118.622 57.9928L127.105 75.5802C127.31 75.5945 127.509 75.6078 127.714 75.6221L140.819 60.4356L146.131 78.1211L151.595 64.602L144.711 41.8811L129.068 61.052C129.31 61.0672 128.83 61.0345 129.068 61.052L119.025 40.274L106.599 61.6028C106.558 61.61 106.517 61.6115 106.475 61.6188L91.1329 43.6168L91.1358 43.6052Z" fill="#111012"/>
</g>
<path opacity="0.95" d="M204.183 121.385C204.056 121.214 203.932 121.048 203.803 120.881L211.783 102.339L190.485 106.331C190.457 106.306 190.429 106.281 190.405 106.258L193.489 85.7979L173.899 94.5361L174.341 70.4406L155.078 86.6682L155.062 86.7219L118.583 170.229L142.472 162.341L214.667 137.446L227.558 118.034L204.178 121.384L204.183 121.385Z" fill="white"/>
<g filter="url(#filter1_n_1758_3667)">
<path d="M199.629 70.9091L177.196 80.6488L175.16 54.1542L155.9 71.4109L155.882 71.4693L151.582 85.3395L151.597 85.2888L168.05 73.0632L169.752 93.1511L188.845 84.9478L185.625 104.702C185.649 104.726 185.679 104.748 185.703 104.773L206.402 101.185L198.455 119.021C198.577 119.187 198.695 119.348 198.817 119.513L218.875 119.707L208.806 135.186L222.655 130.624L235.553 110.692L210.814 111.135C210.958 111.329 210.673 110.942 210.814 111.135L220.187 90.0465L195.879 94.3392C195.847 94.312 195.82 94.2822 195.787 94.255L199.618 70.9143L199.629 70.9091Z" fill="#111012"/>
</g>
<path opacity="0.95" d="M213.09 205.671C213.134 205.462 213.175 205.259 213.215 205.053L232.37 198.686L215.229 185.431C215.229 185.394 215.229 185.356 215.231 185.322L232.564 174.024L213.013 165.199L231.305 149.51L206.377 145.909L206.326 145.933L119.694 174.203L141.47 186.803L208.064 224.181L231.135 220.904L213.088 205.667L213.09 205.671Z" fill="white"/>
<g filter="url(#filter2_n_1758_3667)">
<path d="M247.768 168.712L225.579 158.431L244.016 139.295L218.321 136.38L218.265 136.406L205.045 142.415L205.094 142.393L225.165 146.555L211.291 161.182L230.112 169.99L213.215 180.718C213.213 180.753 213.216 180.789 213.214 180.824L229.655 193.9L211.049 199.822C211.006 200.023 210.965 200.218 210.922 200.42L224.112 215.532L205.855 218.301L218.47 225.614L241.934 221.996L225.156 203.811C225.107 204.048 225.207 203.577 225.156 203.811L247.141 196.792L227.773 181.488C227.772 181.446 227.776 181.406 227.775 181.363L247.757 168.708L247.768 168.712Z" fill="#111012"/>
</g>
<g opacity="0.9" filter="url(#filter3_n_1758_3667)">
<path d="M83.2915 158.68C44.1195 181.423 52.3227 225.891 63.7077 243.303C87.1065 279.092 134.048 278.804 162.829 244.105C197.961 201.748 132.256 130.251 83.2915 158.68Z" fill="#111012"/>
</g>
<g filter="url(#filter4_d_1758_3667)">
<path d="M86.3715 155.863C47.1996 178.606 55.4027 223.074 66.7877 240.486C90.1866 276.275 137.128 275.987 165.909 241.288C201.041 198.931 135.337 127.434 86.3715 155.863Z" fill="#C7EE26"/>
</g>
<g filter="url(#filter5_n_1758_3667)">
<path d="M86.3715 155.863C47.1996 178.606 55.4027 223.074 66.7877 240.486C90.1866 276.275 137.128 275.987 165.909 241.288C201.041 198.931 135.337 127.434 86.3715 155.863Z" fill="#C7EE26"/>
</g>
<path opacity="0.95" d="M34.0233 126.679C33.9944 126.877 33.9668 127.07 33.9412 127.266L16.3474 134.308L33.1555 145.767C33.1576 145.802 33.1597 145.837 33.1599 145.869L17.5503 157.43L36.3682 164.602L20.1063 180.332L43.6697 182.307L43.7159 182.282L123.314 150.926L102.201 140.34L37.6948 109.051L16.258 113.416L34.0252 126.683L34.0233 126.679Z" fill="white"/>
<g filter="url(#filter6_n_1758_3667)">
<path d="M3.60014 163.261L24.9717 171.651L8.76787 190.619L33.0115 191.907L33.0623 191.88L45.1135 185.507L45.0695 185.53L26.0267 182.756L38.2075 168.271L20.0746 161.072L35.3068 150.07C35.307 150.038 35.3019 150.004 35.3021 149.971L19.1606 138.64L36.2647 132.046C36.2937 131.855 36.3213 131.67 36.3504 131.479L23.1406 118.057L40.0944 114.437L27.8616 108.292L6.07606 112.999L22.8204 129.1C22.853 128.875 22.7858 129.321 22.8204 129.1L2.61179 136.912L21.6208 150.166C21.6244 150.206 21.6227 150.243 21.6264 150.283L3.61072 163.265L3.60014 163.261Z" fill="#111012"/>
</g>
<path d="M67.6499 218.433C82.3865 218.433 94.333 206.487 94.333 191.75C94.333 177.013 82.3865 165.067 67.6499 165.067C52.9132 165.067 40.9668 177.013 40.9668 191.75C40.9668 206.487 52.9132 218.433 67.6499 218.433Z" stroke="#111012" stroke-width="3.33538" stroke-miterlimit="10"/>
<path d="M121.016 218.433C135.753 218.433 147.699 206.487 147.699 191.75C147.699 177.013 135.753 165.067 121.016 165.067C106.279 165.067 94.333 177.013 94.333 191.75C94.333 206.487 106.279 218.433 121.016 218.433Z" stroke="#111012" stroke-width="3.33538" stroke-miterlimit="10"/>
<g filter="url(#filter7_d_1758_3667)">
<path d="M139.68 192.719C138.3 189.142 131.973 187.591 129.516 192.49C127.229 199.061 134.048 199.633 136.139 199.419C138.23 199.206 141.404 197.191 139.68 192.719Z" fill="#111012"/>
</g>
<g filter="url(#filter8_d_1758_3667)">
<path d="M86.3887 191.047C84.9063 187.511 78.5368 186.144 76.2226 191.112C74.127 197.747 80.9591 198.121 83.043 197.847C85.1269 197.573 88.2417 195.467 86.3887 191.047Z" fill="#111012"/>
</g>
<g opacity="0.9" filter="url(#filter9_d_1758_3667)">
<path d="M80.1624 217.183C79.9361 224.784 85.907 231.119 93.5 231.352C101.093 231.585 107.436 225.608 107.669 218.015C107.902 210.422 101.924 204.079 94.3314 203.846C86.7384 203.613 80.3954 209.59 80.1624 217.183ZM95.7058 209.275L95.5007 216.115L102.341 216.321C103.188 216.348 103.846 217.051 103.826 217.891C103.806 218.731 103.095 219.396 102.255 219.376L95.4148 219.171L95.2097 226.011C95.182 226.858 94.4793 227.516 93.6392 227.496C92.7991 227.476 92.1345 226.765 92.1545 225.925L92.3596 219.085L85.5191 218.88C84.6723 218.852 84.0144 218.149 84.0344 217.309C84.0544 216.469 84.7648 215.804 85.6049 215.824L92.4455 216.03L92.6506 209.189C92.6783 208.342 93.381 207.684 94.2211 207.704C95.0612 207.724 95.7258 208.435 95.7058 209.275Z" fill="#65B1E2"/>
</g>
<g opacity="0.9" filter="url(#filter10_n_1758_3667)">
<path d="M80.1624 217.183C79.9361 224.784 85.907 231.119 93.5 231.352C101.093 231.585 107.436 225.608 107.669 218.015C107.902 210.422 101.924 204.079 94.3314 203.846C86.7384 203.613 80.3954 209.59 80.1624 217.183ZM95.7058 209.275L95.5007 216.115L102.341 216.321C103.188 216.348 103.846 217.051 103.826 217.891C103.806 218.731 103.095 219.396 102.255 219.376L95.4148 219.171L95.2097 226.011C95.182 226.858 94.4793 227.516 93.6392 227.496C92.7991 227.476 92.1345 226.765 92.1545 225.925L92.3596 219.085L85.5191 218.88C84.6723 218.852 84.0144 218.149 84.0344 217.309C84.0544 216.469 84.7648 215.804 85.6049 215.824L92.4455 216.03L92.6506 209.189C92.6783 208.342 93.381 207.684 94.2211 207.704C95.0612 207.724 95.7258 208.435 95.7058 209.275Z" fill="#65B1E2"/>
</g>
<path opacity="0.9" d="M89.124 237.981C107.09 251.108 135.532 242.715 144.259 223.441" stroke="#111012" stroke-width="3.33538" stroke-linecap="round"/>
<path d="M117.41 191.455L132.342 191.377" stroke="black" stroke-width="3.33538" stroke-linecap="round"/>
<path d="M68.578 189.615L83.494 189.634" stroke="black" stroke-width="3.33538" stroke-linecap="round"/>
</g>
<defs>
<filter id="filter0_n_1758_3667" x="62.5391" y="40.2739" width="89.0557" height="49.3306" filterUnits="userSpaceOnUse" color-interpolation-filters="sRGB">
<feFlood flood-opacity="0" result="BackgroundImageFix"/>
<feBlend mode="normal" in="SourceGraphic" in2="BackgroundImageFix" result="shape"/>
<feTurbulence type="fractalNoise" baseFrequency="3.9975395202636719 3.9975395202636719" stitchTiles="stitch" numOctaves="3" result="noise" seed="437" />
<feColorMatrix in="noise" type="luminanceToAlpha" result="alphaNoise" />
<feComponentTransfer in="alphaNoise" result="coloredNoise1">
<feFuncA type="discrete" tableValues="0 0 0 0 0 0 0 0 0 0 0 0 0 0 0 0 0 0 0 0 1 1 1 1 1 1 1 1 1 0 0 0 0 0 0 0 0 0 0 0 0 0 0 0 0 0 0 0 0 0 0 0 0 0 0 0 0 0 0 0 0 0 0 0 0 0 0 0 0 0 0 0 0 0 0 0 0 0 0 0 0 0 0 0 0 0 0 0 0 0 0 0 0 0 0 0 0 0 0 0 "/>
</feComponentTransfer>
<feComposite operator="in" in2="shape" in="coloredNoise1" result="noise1Clipped" />
<feFlood flood-color="#F3F3F3" result="color1Flood" />
<feComposite operator="in" in2="noise1Clipped" in="color1Flood" result="color1" />
<feMerge result="effect1_noise_1758_3667">
<feMergeNode in="shape" />
<feMergeNode in="color1" />
</feMerge>
</filter>
<filter id="filter1_n_1758_3667" x="151.582" y="54.1543" width="83.9707" height="81.0317" filterUnits="userSpaceOnUse" color-interpolation-filters="sRGB">
<feFlood flood-opacity="0" result="BackgroundImageFix"/>
<feBlend mode="normal" in="SourceGraphic" in2="BackgroundImageFix" result="shape"/>
<feTurbulence type="fractalNoise" baseFrequency="3.9975395202636719 3.9975395202636719" stitchTiles="stitch" numOctaves="3" result="noise" seed="437" />
<feColorMatrix in="noise" type="luminanceToAlpha" result="alphaNoise" />
<feComponentTransfer in="alphaNoise" result="coloredNoise1">
<feFuncA type="discrete" tableValues="0 0 0 0 0 0 0 0 0 0 0 0 0 0 0 0 0 0 0 0 1 1 1 1 1 1 1 1 1 0 0 0 0 0 0 0 0 0 0 0 0 0 0 0 0 0 0 0 0 0 0 0 0 0 0 0 0 0 0 0 0 0 0 0 0 0 0 0 0 0 0 0 0 0 0 0 0 0 0 0 0 0 0 0 0 0 0 0 0 0 0 0 0 0 0 0 0 0 0 0 "/>
</feComponentTransfer>
<feComposite operator="in" in2="shape" in="coloredNoise1" result="noise1Clipped" />
<feFlood flood-color="#F3F3F3" result="color1Flood" />
<feComposite operator="in" in2="noise1Clipped" in="color1Flood" result="color1" />
<feMerge result="effect1_noise_1758_3667">
<feMergeNode in="shape" />
<feMergeNode in="color1" />
</feMerge>
</filter>
<filter id="filter2_n_1758_3667" x="205.046" y="136.38" width="42.7227" height="89.2334" filterUnits="userSpaceOnUse" color-interpolation-filters="sRGB">
<feFlood flood-opacity="0" result="BackgroundImageFix"/>
<feBlend mode="normal" in="SourceGraphic" in2="BackgroundImageFix" result="shape"/>
<feTurbulence type="fractalNoise" baseFrequency="3.9975395202636719 3.9975395202636719" stitchTiles="stitch" numOctaves="3" result="noise" seed="437" />
<feColorMatrix in="noise" type="luminanceToAlpha" result="alphaNoise" />
<feComponentTransfer in="alphaNoise" result="coloredNoise1">
<feFuncA type="discrete" tableValues="0 0 0 0 0 0 0 0 0 0 0 0 0 0 0 0 0 0 0 0 1 1 1 1 1 1 1 1 1 0 0 0 0 0 0 0 0 0 0 0 0 0 0 0 0 0 0 0 0 0 0 0 0 0 0 0 0 0 0 0 0 0 0 0 0 0 0 0 0 0 0 0 0 0 0 0 0 0 0 0 0 0 0 0 0 0 0 0 0 0 0 0 0 0 0 0 0 0 0 0 "/>
</feComponentTransfer>
<feComposite operator="in" in2="shape" in="coloredNoise1" result="noise1Clipped" />
<feFlood flood-color="#F3F3F3" result="color1Flood" />
<feComposite operator="in" in2="noise1Clipped" in="color1Flood" result="color1" />
<feMerge result="effect1_noise_1758_3667">
<feMergeNode in="shape" />
<feMergeNode in="color1" />
</feMerge>
</filter>
<filter id="filter3_n_1758_3667" x="54.292" y="152.179" width="118.459" height="117.958" filterUnits="userSpaceOnUse" color-interpolation-filters="sRGB">
<feFlood flood-opacity="0" result="BackgroundImageFix"/>
<feBlend mode="normal" in="SourceGraphic" in2="BackgroundImageFix" result="shape"/>
<feTurbulence type="fractalNoise" baseFrequency="3.9975395202636719 3.9975395202636719" stitchTiles="stitch" numOctaves="3" result="noise" seed="437" />
<feColorMatrix in="noise" type="luminanceToAlpha" result="alphaNoise" />
<feComponentTransfer in="alphaNoise" result="coloredNoise1">
<feFuncA type="discrete" tableValues="0 0 0 0 0 0 0 0 0 0 0 0 0 0 0 0 0 0 0 0 1 1 1 1 1 1 1 1 1 0 0 0 0 0 0 0 0 0 0 0 0 0 0 0 0 0 0 0 0 0 0 0 0 0 0 0 0 0 0 0 0 0 0 0 0 0 0 0 0 0 0 0 0 0 0 0 0 0 0 0 0 0 0 0 0 0 0 0 0 0 0 0 0 0 0 0 0 0 0 0 "/>
</feComponentTransfer>
<feComposite operator="in" in2="shape" in="coloredNoise1" result="noise1Clipped" />
<feFlood flood-color="#F3F3F3" result="color1Flood" />
<feComposite operator="in" in2="noise1Clipped" in="color1Flood" result="color1" />
<feMerge result="effect1_noise_1758_3667">
<feMergeNode in="shape" />
<feMergeNode in="color1" />
</feMerge>
</filter>
<filter id="filter4_d_1758_3667" x="57.3721" y="149.362" width="120.127" height="119.626" filterUnits="userSpaceOnUse" color-interpolation-filters="sRGB">
<feFlood flood-opacity="0" result="BackgroundImageFix"/>
<feColorMatrix in="SourceAlpha" type="matrix" values="0 0 0 0 0 0 0 0 0 0 0 0 0 0 0 0 0 0 127 0" result="hardAlpha"/>
<feOffset dx="1.66769" dy="1.66769"/>
<feComposite in2="hardAlpha" operator="out"/>
<feColorMatrix type="matrix" values="0 0 0 0 1 0 0 0 0 1 0 0 0 0 1 0 0 0 1 0"/>
<feBlend mode="normal" in2="BackgroundImageFix" result="effect1_dropShadow_1758_3667"/>
<feBlend mode="normal" in="SourceGraphic" in2="effect1_dropShadow_1758_3667" result="shape"/>
</filter>
<filter id="filter5_n_1758_3667" x="57.3721" y="149.362" width="118.459" height="117.958" filterUnits="userSpaceOnUse" color-interpolation-filters="sRGB">
<feFlood flood-opacity="0" result="BackgroundImageFix"/>
<feBlend mode="normal" in="SourceGraphic" in2="BackgroundImageFix" result="shape"/>
<feTurbulence type="fractalNoise" baseFrequency="3.9975395202636719 3.9975395202636719" stitchTiles="stitch" numOctaves="3" result="noise" seed="4583" />
<feColorMatrix in="noise" type="luminanceToAlpha" result="alphaNoise" />
<feComponentTransfer in="alphaNoise" result="coloredNoise1">
<feFuncA type="discrete" tableValues="0 0 0 0 0 0 0 0 0 0 0 1 1 1 1 1 1 1 1 1 1 1 1 1 1 1 1 1 1 1 1 1 1 1 1 1 1 1 1 0 0 0 0 0 0 0 0 0 0 0 0 0 0 0 0 0 0 0 0 0 0 0 0 0 0 0 0 0 0 0 0 0 0 0 0 0 0 0 0 0 0 0 0 0 0 0 0 0 0 0 0 0 0 0 0 0 0 0 0 0 "/>
</feComponentTransfer>
<feComposite operator="in" in2="shape" in="coloredNoise1" result="noise1Clipped" />
<feComponentTransfer in="alphaNoise" result="coloredNoise2">
<feFuncA type="discrete" tableValues="0 0 0 0 0 0 0 0 0 0 0 0 0 0 0 0 0 0 0 0 0 0 0 0 0 0 0 0 0 0 0 0 0 0 0 0 0 0 0 0 0 0 0 0 0 0 0 0 0 0 0 0 0 0 0 0 0 0 0 0 0 1 1 1 1 1 1 1 1 1 1 1 1 1 1 1 1 1 1 1 1 1 1 1 1 1 1 1 1 0 0 0 0 0 0 0 0 0 0 0 "/>
</feComponentTransfer>
<feComposite operator="in" in2="shape" in="coloredNoise2" result="noise2Clipped" />
<feFlood flood-color="rgba(121, 90, 73, 0.67)" result="color1Flood" />
<feComposite operator="in" in2="noise1Clipped" in="color1Flood" result="color1" />
<feFlood flood-color="rgba(255, 255, 255, 0.25)" result="color2Flood" />
<feComposite operator="in" in2="noise2Clipped" in="color2Flood" result="color2" />
<feMerge result="effect1_noise_1758_3667">
<feMergeNode in="shape" />
<feMergeNode in="color1" />
<feMergeNode in="color2" />
</feMerge>
</filter>
<filter id="filter6_n_1758_3667" x="2.61133" y="108.292" width="42.502" height="83.6147" filterUnits="userSpaceOnUse" color-interpolation-filters="sRGB">
<feFlood flood-opacity="0" result="BackgroundImageFix"/>
<feBlend mode="normal" in="SourceGraphic" in2="BackgroundImageFix" result="shape"/>
<feTurbulence type="fractalNoise" baseFrequency="3.9975395202636719 3.9975395202636719" stitchTiles="stitch" numOctaves="3" result="noise" seed="437" />
<feColorMatrix in="noise" type="luminanceToAlpha" result="alphaNoise" />
<feComponentTransfer in="alphaNoise" result="coloredNoise1">
<feFuncA type="discrete" tableValues="0 0 0 0 0 0 0 0 0 0 0 0 0 0 0 0 0 0 0 0 1 1 1 1 1 1 1 1 1 0 0 0 0 0 0 0 0 0 0 0 0 0 0 0 0 0 0 0 0 0 0 0 0 0 0 0 0 0 0 0 0 0 0 0 0 0 0 0 0 0 0 0 0 0 0 0 0 0 0 0 0 0 0 0 0 0 0 0 0 0 0 0 0 0 0 0 0 0 0 0 "/>
</feComponentTransfer>
<feComposite operator="in" in2="shape" in="coloredNoise1" result="noise1Clipped" />
<feFlood flood-color="#F3F3F3" result="color1Flood" />
<feComposite operator="in" in2="noise1Clipped" in="color1Flood" result="color1" />
<feMerge result="effect1_noise_1758_3667">
<feMergeNode in="shape" />
<feMergeNode in="color1" />
</feMerge>
</filter>
<filter id="filter7_d_1758_3667" x="129.053" y="189.392" width="12.7888" height="11.7307" filterUnits="userSpaceOnUse" color-interpolation-filters="sRGB">
<feFlood flood-opacity="0" result="BackgroundImageFix"/>
<feColorMatrix in="SourceAlpha" type="matrix" values="0 0 0 0 0 0 0 0 0 0 0 0 0 0 0 0 0 0 127 0" result="hardAlpha"/>
<feOffset dx="1.66769" dy="1.66769"/>
<feComposite in2="hardAlpha" operator="out"/>
<feColorMatrix type="matrix" values="0 0 0 0 1 0 0 0 0 1 0 0 0 0 1 0 0 0 1 0"/>
<feBlend mode="normal" in2="BackgroundImageFix" result="effect1_dropShadow_1758_3667"/>
<feBlend mode="normal" in="SourceGraphic" in2="effect1_dropShadow_1758_3667" result="shape"/>
</filter>
<filter id="filter8_d_1758_3667" x="75.8281" y="187.872" width="12.7937" height="11.7048" filterUnits="userSpaceOnUse" color-interpolation-filters="sRGB">
<feFlood flood-opacity="0" result="BackgroundImageFix"/>
<feColorMatrix in="SourceAlpha" type="matrix" values="0 0 0 0 0 0 0 0 0 0 0 0 0 0 0 0 0 0 127 0" result="hardAlpha"/>
<feOffset dx="1.66769" dy="1.66769"/>
<feComposite in2="hardAlpha" operator="out"/>
<feColorMatrix type="matrix" values="0 0 0 0 1 0 0 0 0 1 0 0 0 0 1 0 0 0 1 0"/>
<feBlend mode="normal" in2="BackgroundImageFix" result="effect1_dropShadow_1758_3667"/>
<feBlend mode="normal" in="SourceGraphic" in2="effect1_dropShadow_1758_3667" result="shape"/>
</filter>
<filter id="filter9_d_1758_3667" x="80.1562" y="203.839" width="29.1872" height="29.1877" filterUnits="userSpaceOnUse" color-interpolation-filters="sRGB">
<feFlood flood-opacity="0" result="BackgroundImageFix"/>
<feColorMatrix in="SourceAlpha" type="matrix" values="0 0 0 0 0 0 0 0 0 0 0 0 0 0 0 0 0 0 127 0" result="hardAlpha"/>
<feOffset dx="1.66769" dy="1.66769"/>
<feComposite in2="hardAlpha" operator="out"/>
<feColorMatrix type="matrix" values="0 0 0 0 1 0 0 0 0 1 0 0 0 0 1 0 0 0 1 0"/>
<feBlend mode="normal" in2="BackgroundImageFix" result="effect1_dropShadow_1758_3667"/>
<feBlend mode="normal" in="SourceGraphic" in2="effect1_dropShadow_1758_3667" result="shape"/>
</filter>
<filter id="filter10_n_1758_3667" x="80.1562" y="203.839" width="27.5195" height="27.52" filterUnits="userSpaceOnUse" color-interpolation-filters="sRGB">
<feFlood flood-opacity="0" result="BackgroundImageFix"/>
<feBlend mode="normal" in="SourceGraphic" in2="BackgroundImageFix" result="shape"/>
<feTurbulence type="fractalNoise" baseFrequency="2.3985240459442139 2.3985240459442139" stitchTiles="stitch" numOctaves="3" result="noise" seed="6579" />
<feColorMatrix in="noise" type="luminanceToAlpha" result="alphaNoise" />
<feComponentTransfer in="alphaNoise" result="coloredNoise1">
<feFuncA type="discrete" tableValues="0 0 0 0 0 0 0 0 0 0 0 0 0 0 1 1 1 1 1 1 1 1 1 1 1 1 1 1 1 1 1 1 1 1 1 0 0 0 0 0 0 0 0 0 0 0 0 0 0 0 0 0 0 0 0 0 0 0 0 0 0 0 0 0 0 0 0 0 0 0 0 0 0 0 0 0 0 0 0 0 0 0 0 0 0 0 0 0 0 0 0 0 0 0 0 0 0 0 0 0 "/>
</feComponentTransfer>
<feComposite operator="in" in2="shape" in="coloredNoise1" result="noise1Clipped" />
<feFlood flood-color="rgba(0, 0, 0, 0.25)" result="color1Flood" />
<feComposite operator="in" in2="noise1Clipped" in="color1Flood" result="color1" />
<feMerge result="effect1_noise_1758_3667">
<feMergeNode in="shape" />
<feMergeNode in="color1" />
</feMerge>
</filter>
<clipPath id="clip0_1758_3667">
<rect width="271" height="289.368" fill="white"/>
</clipPath>
</defs>
</svg>
